<svg width="1994" height="1144" viewBox="0 0 1994 1144" fill="none" xmlns="http://www.w3.org/2000/svg">
<g id="Frame 1">
<rect width="1994" height="1144" fill="#272F50" fill-opacity="0.2"/>
<rect id="ControlROM" opacity="0.5" x="847" y="876" width="899" height="143" fill="#32C643" fill-opacity="0.8"/>
<path id="PCMux" d="M289 526.166L261 510V592.166L289 576V526.166Z" fill="#D9D9D9" fill-opacity="0.5" stroke="black"/>
<path id="RegWriteMUX" d="M910.5 578V473L933.5 486.279V564.721L910.5 578Z" fill="#D9D9D9" fill-opacity="0.51" stroke="black"/>
<path id="RegDataMUX" d="M911 699V594L934 607.279V685.721L911 699Z" fill="#D9D9D9" fill-opacity="0.51" stroke="black"/>
<g id="ALU" filter="url(#filter0_d_3_95)">
<path d="M1310.5 361.5V279.5L1435 361.5V548.5L1310.5 627V548.5L1368.5 504.5V401L1310.5 361.5Z" fill="#B5742F" fill-opacity="0.8" shape-rendering="crispEdges"/>
<path d="M1310.5 361.5V279.5L1435 361.5V548.5L1310.5 627V548.5L1368.5 504.5V401L1310.5 361.5Z" stroke="black" shape-rendering="crispEdges"/>
</g>
<rect id="Register" opacity="0.5" x="957.5" y="246.5" width="233" height="438" fill="#2B4FAA" fill-opacity="0.8" stroke="black"/>
<rect id="InstMemory" opacity="0.5" x="570" y="246" width="233" height="439" fill="#D834B4" fill-opacity="0.8"/>
<rect id="PC" opacity="0.5" x="327" y="495" width="168" height="119" fill="#E3C61F" fill-opacity="0.8"/>
<path id="PCadder" d="M379.5 388.5L432 362.5V388.5L406.5 403V437L432 449.5V477L379.5 449.5V388.5Z" fill="#D9D9D9" fill-opacity="0.5" stroke="black"/>
<rect id="DataMemo" opacity="0.5" x="1569" y="246" width="235" height="439" fill="#F03232" fill-opacity="0.8"/>
<line id="PCtoInstOrPCadderPath" x1="495" y1="554.5" x2="570" y2="554.5" stroke="white"/>
<g id="PCcurrentPath">
<line id="Line 2" x1="526.5" y1="555" x2="526.5" y2="462" stroke="white"/>
<line id="Line 3" x1="527" y1="462.5" x2="432" y2="462.5" stroke="white"/>
</g>
<line id="PCadd4Path" x1="511" y1="378.5" x2="432" y2="378.5" stroke="white"/>
<line id="INSTtoMainPath" x1="803" y1="348.5" x2="847" y2="348.5" stroke="white"/>
<line id="InstBusToAnyway" x1="847.5" y1="196" x2="847.5" y2="614" stroke="white"/>
<line id="RegWrite0to3" x1="847" y1="488.5" x2="907" y2="488.5" stroke="white"/>
<line id="RegWrite4to7" x1="847" y1="520.5" x2="907" y2="520.5" stroke="white"/>
<line id="RegWrite8to11" x1="847" y1="556.5" x2="907" y2="556.5" stroke="white"/>
<line id="RegWritePath" x1="935" y1="520.5" x2="953" y2="520.5" stroke="white"/>
<line id="RegWritePath_2" x1="934" y1="646.5" x2="959" y2="646.5" stroke="white"/>
<line id="RegToALUD2MUXPath" x1="1191" y1="582.5" x2="1311" y2="582.5" stroke="white"/>
<g id="RegToDataPath">
<line id="Line 19" x1="1216.5" y1="583" x2="1216.5" y2="634" stroke="white"/>
<line id="Line 20" x1="1216" y1="633.5" x2="1566" y2="633.5" stroke="white"/>
</g>
<line id="RegToALUpathD1" x1="1191" y1="327.5" x2="1308" y2="327.5" stroke="white"/>
<line id="ALUtoDataMemoPath" x1="1435" y1="448.5" x2="1569" y2="448.5" stroke="white"/>
<line id="Line 23" x1="847" y1="613.5" x2="907" y2="613.5" stroke="white"/>
<g id="DataMemoToRegPath">
<line id="Line 24" x1="848" y1="646.5" x2="911" y2="646.5" stroke="white"/>
<line id="Line 25" x1="847.5" y1="647" x2="847.5" y2="766" stroke="white"/>
<line id="Line 27" x1="1802" y1="448.5" x2="1872" y2="448.5" stroke="white"/>
<line id="Line 28" x1="1872.5" y1="449" x2="1872.5" y2="767" stroke="white"/>
<line id="Line 61" x1="1873" y1="766.5" x2="847" y2="766.5" stroke="white"/>
</g>
<g id="ALUtoRegDataPath">
<line id="Line 30" x1="881" y1="673.5" x2="907" y2="673.5" stroke="white"/>
<line id="Line 31" x1="881.5" y1="674" x2="881.5" y2="735" stroke="white"/>
<line id="Line 32" x1="881" y1="734.5" x2="1494" y2="734.5" stroke="white"/>
<line id="Line 33" x1="1493.5" y1="735" x2="1493.5" y2="449" stroke="white"/>
</g>
<g id="PCjumpPath">
<path id="Line 11" d="M111.5 196.75H847.5" stroke="white"/>
<line id="Line 34" x1="111.5" y1="197" x2="111.5" y2="578" stroke="white"/>
<line id="Line 35" x1="111" y1="577.5" x2="256" y2="577.5" stroke="white"/>
</g>
<g id="PCcurADD4Path">
<line id="PCcurADD4Path_2" x1="379" y1="414.5" x2="209" y2="414.5" stroke="white"/>
<line id="PCcurADD4Path_3" x1="209.5" y1="414" x2="209.5" y2="533" stroke="white"/>
<line id="PCcurADD4Path_4" x1="209" y1="532.5" x2="256" y2="532.5" stroke="white"/>
</g>
<line id="PCnextPath" x1="289" y1="550.5" x2="324" y2="550.5" stroke="white"/>
<line id="R2readAddr" x1="847" y1="380.5" x2="953" y2="380.5" stroke="white"/>
<line id="R1readAddr" x1="847" y1="313.5" x2="953" y2="313.5" stroke="white"/>
<path id="PC_2" d="M387.818 564V540.727H395.682C397.508 540.727 399 541.057 400.159 541.716C401.326 542.367 402.189 543.25 402.75 544.364C403.311 545.477 403.591 546.72 403.591 548.091C403.591 549.462 403.311 550.708 402.75 551.83C402.197 552.951 401.341 553.845 400.182 554.511C399.023 555.17 397.538 555.5 395.727 555.5H390.091V553H395.636C396.886 553 397.89 552.784 398.648 552.352C399.405 551.92 399.955 551.337 400.295 550.602C400.644 549.86 400.818 549.023 400.818 548.091C400.818 547.159 400.644 546.326 400.295 545.591C399.955 544.856 399.402 544.28 398.636 543.864C397.871 543.439 396.856 543.227 395.591 543.227H390.636V564H387.818ZM426.858 548H424.04C423.873 547.189 423.581 546.477 423.165 545.864C422.756 545.25 422.256 544.735 421.665 544.318C421.081 543.894 420.434 543.576 419.722 543.364C419.009 543.152 418.267 543.045 417.494 543.045C416.085 543.045 414.809 543.402 413.665 544.114C412.528 544.826 411.623 545.875 410.949 547.261C410.282 548.648 409.949 550.348 409.949 552.364C409.949 554.379 410.282 556.08 410.949 557.466C411.623 558.852 412.528 559.902 413.665 560.614C414.809 561.326 416.085 561.682 417.494 561.682C418.267 561.682 419.009 561.576 419.722 561.364C420.434 561.152 421.081 560.837 421.665 560.42C422.256 559.996 422.756 559.477 423.165 558.864C423.581 558.242 423.873 557.53 424.04 556.727H426.858C426.646 557.917 426.259 558.981 425.699 559.92C425.138 560.86 424.441 561.659 423.608 562.318C422.775 562.97 421.839 563.466 420.801 563.807C419.771 564.148 418.669 564.318 417.494 564.318C415.509 564.318 413.744 563.833 412.199 562.864C410.653 561.894 409.438 560.515 408.551 558.727C407.665 556.939 407.222 554.818 407.222 552.364C407.222 549.909 407.665 547.788 408.551 546C409.438 544.212 410.653 542.833 412.199 541.864C413.744 540.894 415.509 540.409 417.494 540.409C418.669 540.409 419.771 540.58 420.801 540.92C421.839 541.261 422.775 541.761 423.608 542.42C424.441 543.072 425.138 543.867 425.699 544.807C426.259 545.739 426.646 546.803 426.858 548Z" fill="white"/>
<path id="Inst Memory" d="M662.371 424.727V448H659.553V424.727H662.371ZM670.339 437.5V448H667.658V430.545H670.249V433.273H670.476C670.885 432.386 671.506 431.674 672.339 431.136C673.173 430.591 674.249 430.318 675.567 430.318C676.749 430.318 677.783 430.561 678.669 431.045C679.555 431.523 680.245 432.25 680.737 433.227C681.23 434.197 681.476 435.424 681.476 436.909V448H678.794V437.091C678.794 435.72 678.438 434.652 677.726 433.886C677.014 433.114 676.036 432.727 674.794 432.727C673.938 432.727 673.173 432.913 672.499 433.284C671.832 433.655 671.305 434.197 670.919 434.909C670.533 435.621 670.339 436.485 670.339 437.5ZM698.74 434.455L696.331 435.136C696.179 434.735 695.956 434.345 695.661 433.966C695.373 433.58 694.979 433.261 694.479 433.011C693.979 432.761 693.339 432.636 692.558 432.636C691.49 432.636 690.6 432.883 689.888 433.375C689.183 433.86 688.831 434.477 688.831 435.227C688.831 435.894 689.073 436.42 689.558 436.807C690.043 437.193 690.801 437.515 691.831 437.773L694.422 438.409C695.982 438.788 697.145 439.367 697.911 440.148C698.676 440.92 699.058 441.917 699.058 443.136C699.058 444.136 698.77 445.03 698.195 445.818C697.626 446.606 696.831 447.227 695.808 447.682C694.786 448.136 693.596 448.364 692.24 448.364C690.46 448.364 688.986 447.977 687.82 447.205C686.653 446.432 685.914 445.303 685.604 443.818L688.149 443.182C688.392 444.121 688.85 444.826 689.524 445.295C690.206 445.765 691.096 446 692.195 446C693.445 446 694.437 445.735 695.172 445.205C695.914 444.667 696.286 444.023 696.286 443.273C696.286 442.667 696.073 442.159 695.649 441.75C695.225 441.333 694.573 441.023 693.695 440.818L690.786 440.136C689.187 439.758 688.013 439.17 687.263 438.375C686.52 437.572 686.149 436.568 686.149 435.364C686.149 434.379 686.426 433.508 686.979 432.75C687.539 431.992 688.301 431.398 689.263 430.966C690.232 430.534 691.331 430.318 692.558 430.318C694.286 430.318 695.642 430.697 696.626 431.455C697.619 432.212 698.323 433.212 698.74 434.455ZM710.686 430.545V432.818H701.641V430.545H710.686ZM704.277 426.364H706.959V443C706.959 443.758 707.069 444.326 707.288 444.705C707.516 445.076 707.804 445.326 708.152 445.455C708.508 445.576 708.883 445.636 709.277 445.636C709.572 445.636 709.815 445.621 710.004 445.591C710.194 445.553 710.345 445.523 710.459 445.5L711.004 447.909C710.822 447.977 710.569 448.045 710.243 448.114C709.917 448.189 709.504 448.227 709.004 448.227C708.247 448.227 707.504 448.064 706.777 447.739C706.057 447.413 705.459 446.917 704.982 446.25C704.512 445.583 704.277 444.742 704.277 443.727V426.364ZM625.193 463.727H628.557L636.466 483.045H636.739L644.648 463.727H648.011V487H645.375V469.318H645.148L637.875 487H635.33L628.057 469.318H627.83V487H625.193V463.727ZM660.616 487.364C658.935 487.364 657.484 486.992 656.264 486.25C655.052 485.5 654.116 484.455 653.457 483.114C652.806 481.765 652.48 480.197 652.48 478.409C652.48 476.621 652.806 475.045 653.457 473.682C654.116 472.311 655.033 471.242 656.207 470.477C657.389 469.705 658.768 469.318 660.344 469.318C661.253 469.318 662.151 469.47 663.037 469.773C663.923 470.076 664.73 470.568 665.457 471.25C666.185 471.924 666.764 472.818 667.196 473.932C667.628 475.045 667.844 476.417 667.844 478.045V479.182H654.389V476.864H665.116C665.116 475.879 664.92 475 664.526 474.227C664.139 473.455 663.586 472.845 662.866 472.398C662.154 471.951 661.313 471.727 660.344 471.727C659.276 471.727 658.351 471.992 657.571 472.523C656.798 473.045 656.204 473.727 655.787 474.568C655.37 475.409 655.162 476.311 655.162 477.273V478.818C655.162 480.136 655.389 481.254 655.844 482.17C656.306 483.08 656.946 483.773 657.764 484.25C658.582 484.72 659.533 484.955 660.616 484.955C661.321 484.955 661.957 484.856 662.526 484.659C663.101 484.455 663.598 484.152 664.014 483.75C664.431 483.341 664.753 482.833 664.98 482.227L667.571 482.955C667.298 483.833 666.84 484.606 666.196 485.273C665.552 485.932 664.757 486.447 663.81 486.818C662.863 487.182 661.798 487.364 660.616 487.364ZM671.923 487V469.545H674.514V472.273H674.741C675.105 471.341 675.692 470.617 676.503 470.102C677.313 469.58 678.287 469.318 679.423 469.318C680.575 469.318 681.533 469.58 682.298 470.102C683.071 470.617 683.673 471.341 684.105 472.273H684.287C684.734 471.371 685.404 470.655 686.298 470.125C687.192 469.587 688.264 469.318 689.514 469.318C691.075 469.318 692.351 469.807 693.344 470.784C694.336 471.754 694.832 473.265 694.832 475.318V487H692.151V475.318C692.151 474.03 691.798 473.11 691.094 472.557C690.389 472.004 689.56 471.727 688.605 471.727C687.378 471.727 686.427 472.098 685.753 472.841C685.079 473.576 684.741 474.508 684.741 475.636V487H682.014V475.045C682.014 474.053 681.692 473.254 681.048 472.648C680.404 472.034 679.575 471.727 678.56 471.727C677.863 471.727 677.211 471.913 676.605 472.284C676.007 472.655 675.522 473.17 675.151 473.83C674.787 474.481 674.605 475.235 674.605 476.091V487H671.923ZM706.827 487.364C705.251 487.364 703.868 486.989 702.679 486.239C701.497 485.489 700.573 484.439 699.906 483.091C699.247 481.742 698.918 480.167 698.918 478.364C698.918 476.545 699.247 474.958 699.906 473.602C700.573 472.246 701.497 471.193 702.679 470.443C703.868 469.693 705.251 469.318 706.827 469.318C708.402 469.318 709.781 469.693 710.963 470.443C712.152 471.193 713.077 472.246 713.736 473.602C714.402 474.958 714.736 476.545 714.736 478.364C714.736 480.167 714.402 481.742 713.736 483.091C713.077 484.439 712.152 485.489 710.963 486.239C709.781 486.989 708.402 487.364 706.827 487.364ZM706.827 484.955C708.024 484.955 709.009 484.648 709.781 484.034C710.554 483.42 711.126 482.614 711.497 481.614C711.868 480.614 712.054 479.53 712.054 478.364C712.054 477.197 711.868 476.11 711.497 475.102C711.126 474.095 710.554 473.28 709.781 472.659C709.009 472.038 708.024 471.727 706.827 471.727C705.63 471.727 704.645 472.038 703.872 472.659C703.099 473.28 702.527 474.095 702.156 475.102C701.785 476.11 701.599 477.197 701.599 478.364C701.599 479.53 701.785 480.614 702.156 481.614C702.527 482.614 703.099 483.42 703.872 484.034C704.645 484.648 705.63 484.955 706.827 484.955ZM718.83 487V469.545H721.42V472.182H721.602C721.92 471.318 722.496 470.617 723.33 470.08C724.163 469.542 725.102 469.273 726.148 469.273C726.345 469.273 726.591 469.277 726.886 469.284C727.182 469.292 727.405 469.303 727.557 469.318V472.045C727.466 472.023 727.258 471.989 726.932 471.943C726.614 471.89 726.277 471.864 725.92 471.864C725.072 471.864 724.314 472.042 723.648 472.398C722.989 472.746 722.466 473.231 722.08 473.852C721.701 474.466 721.511 475.167 721.511 475.955V487H718.83ZM732.994 493.545C732.54 493.545 732.134 493.508 731.778 493.432C731.422 493.364 731.176 493.295 731.04 493.227L731.722 490.864C732.373 491.03 732.949 491.091 733.449 491.045C733.949 491 734.392 490.777 734.778 490.375C735.172 489.981 735.532 489.341 735.858 488.455L736.358 487.091L729.903 469.545H732.812L737.631 483.455H737.812L742.631 469.545H745.54L738.131 489.545C737.797 490.447 737.384 491.193 736.892 491.784C736.4 492.383 735.828 492.826 735.176 493.114C734.532 493.402 733.805 493.545 732.994 493.545Z" fill="white"/>
<path id="Register_2" d="M1013.97 462V438.727H1021.84C1023.66 438.727 1025.15 439.038 1026.32 439.659C1027.48 440.273 1028.35 441.117 1028.91 442.193C1029.47 443.269 1029.75 444.492 1029.75 445.864C1029.75 447.235 1029.47 448.451 1028.91 449.511C1028.35 450.572 1027.49 451.405 1026.33 452.011C1025.17 452.61 1023.69 452.909 1021.88 452.909H1015.52V450.364H1021.79C1023.04 450.364 1024.04 450.182 1024.79 449.818C1025.56 449.455 1026.11 448.939 1026.45 448.273C1026.8 447.598 1026.97 446.795 1026.97 445.864C1026.97 444.932 1026.8 444.117 1026.45 443.42C1026.1 442.723 1025.55 442.186 1024.78 441.807C1024.02 441.42 1023 441.227 1021.75 441.227H1016.79V462H1013.97ZM1024.93 451.545L1030.66 462H1027.38L1021.75 451.545H1024.93ZM1041.21 462.364C1039.53 462.364 1038.08 461.992 1036.86 461.25C1035.65 460.5 1034.71 459.455 1034.05 458.114C1033.4 456.765 1033.07 455.197 1033.07 453.409C1033.07 451.621 1033.4 450.045 1034.05 448.682C1034.71 447.311 1035.63 446.242 1036.8 445.477C1037.98 444.705 1039.36 444.318 1040.94 444.318C1041.85 444.318 1042.74 444.47 1043.63 444.773C1044.52 445.076 1045.32 445.568 1046.05 446.25C1046.78 446.924 1047.36 447.818 1047.79 448.932C1048.22 450.045 1048.44 451.417 1048.44 453.045V454.182H1034.98V451.864H1045.71C1045.71 450.879 1045.51 450 1045.12 449.227C1044.73 448.455 1044.18 447.845 1043.46 447.398C1042.75 446.951 1041.91 446.727 1040.94 446.727C1039.87 446.727 1038.95 446.992 1038.16 447.523C1037.39 448.045 1036.8 448.727 1036.38 449.568C1035.96 450.409 1035.76 451.311 1035.76 452.273V453.818C1035.76 455.136 1035.98 456.254 1036.44 457.17C1036.9 458.08 1037.54 458.773 1038.36 459.25C1039.18 459.72 1040.13 459.955 1041.21 459.955C1041.91 459.955 1042.55 459.856 1043.12 459.659C1043.7 459.455 1044.19 459.152 1044.61 458.75C1045.02 458.341 1045.35 457.833 1045.57 457.227L1048.16 457.955C1047.89 458.833 1047.43 459.606 1046.79 460.273C1046.15 460.932 1045.35 461.447 1044.4 461.818C1043.46 462.182 1042.39 462.364 1041.21 462.364ZM1059.56 468.909C1058.27 468.909 1057.15 468.742 1056.22 468.409C1055.29 468.083 1054.51 467.652 1053.89 467.114C1053.28 466.583 1052.79 466.015 1052.43 465.409L1054.56 463.909C1054.8 464.227 1055.11 464.591 1055.48 465C1055.85 465.417 1056.36 465.777 1057.01 466.08C1057.66 466.39 1058.51 466.545 1059.56 466.545C1060.97 466.545 1062.13 466.205 1063.05 465.523C1063.97 464.841 1064.43 463.773 1064.43 462.318V458.773H1064.2C1064 459.091 1063.72 459.485 1063.36 459.955C1063 460.417 1062.49 460.83 1061.81 461.193C1061.15 461.549 1060.24 461.727 1059.11 461.727C1057.7 461.727 1056.43 461.394 1055.31 460.727C1054.2 460.061 1053.32 459.091 1052.66 457.818C1052.02 456.545 1051.7 455 1051.7 453.182C1051.7 451.394 1052.01 449.837 1052.64 448.511C1053.27 447.178 1054.15 446.148 1055.27 445.42C1056.39 444.686 1057.68 444.318 1059.15 444.318C1060.29 444.318 1061.19 444.508 1061.86 444.886C1062.53 445.258 1063.05 445.682 1063.4 446.159C1063.77 446.629 1064.05 447.015 1064.24 447.318H1064.52V444.545H1067.11V462.5C1067.11 464 1066.77 465.22 1066.09 466.159C1065.41 467.106 1064.5 467.799 1063.36 468.239C1062.22 468.686 1060.96 468.909 1059.56 468.909ZM1059.47 459.318C1060.55 459.318 1061.46 459.072 1062.2 458.58C1062.94 458.087 1063.51 457.379 1063.89 456.455C1064.28 455.53 1064.47 454.424 1064.47 453.136C1064.47 451.879 1064.28 450.769 1063.9 449.807C1063.52 448.845 1062.96 448.091 1062.22 447.545C1061.48 447 1060.56 446.727 1059.47 446.727C1058.34 446.727 1057.39 447.015 1056.63 447.591C1055.88 448.167 1055.32 448.939 1054.94 449.909C1054.57 450.879 1054.38 451.955 1054.38 453.136C1054.38 454.348 1054.57 455.42 1054.95 456.352C1055.34 457.277 1055.9 458.004 1056.65 458.534C1057.41 459.057 1058.35 459.318 1059.47 459.318ZM1072.02 462V444.545H1074.7V462H1072.02ZM1073.38 441.636C1072.86 441.636 1072.41 441.458 1072.03 441.102C1071.66 440.746 1071.47 440.318 1071.47 439.818C1071.47 439.318 1071.66 438.89 1072.03 438.534C1072.41 438.178 1072.86 438 1073.38 438C1073.9 438 1074.35 438.178 1074.72 438.534C1075.1 438.89 1075.29 439.318 1075.29 439.818C1075.29 440.318 1075.1 440.746 1074.72 441.102C1074.35 441.458 1073.9 441.636 1073.38 441.636ZM1091.97 448.455L1089.57 449.136C1089.41 448.735 1089.19 448.345 1088.89 447.966C1088.61 447.58 1088.21 447.261 1087.71 447.011C1087.21 446.761 1086.57 446.636 1085.79 446.636C1084.72 446.636 1083.83 446.883 1083.12 447.375C1082.42 447.86 1082.07 448.477 1082.07 449.227C1082.07 449.894 1082.31 450.42 1082.79 450.807C1083.28 451.193 1084.04 451.515 1085.07 451.773L1087.66 452.409C1089.22 452.788 1090.38 453.367 1091.14 454.148C1091.91 454.92 1092.29 455.917 1092.29 457.136C1092.29 458.136 1092 459.03 1091.43 459.818C1090.86 460.606 1090.07 461.227 1089.04 461.682C1088.02 462.136 1086.83 462.364 1085.47 462.364C1083.69 462.364 1082.22 461.977 1081.05 461.205C1079.89 460.432 1079.15 459.303 1078.84 457.818L1081.38 457.182C1081.63 458.121 1082.08 458.826 1082.76 459.295C1083.44 459.765 1084.33 460 1085.43 460C1086.68 460 1087.67 459.735 1088.41 459.205C1089.15 458.667 1089.52 458.023 1089.52 457.273C1089.52 456.667 1089.31 456.159 1088.88 455.75C1088.46 455.333 1087.81 455.023 1086.93 454.818L1084.02 454.136C1082.42 453.758 1081.25 453.17 1080.5 452.375C1079.75 451.572 1079.38 450.568 1079.38 449.364C1079.38 448.379 1079.66 447.508 1080.21 446.75C1080.77 445.992 1081.54 445.398 1082.5 444.966C1083.47 444.534 1084.57 444.318 1085.79 444.318C1087.52 444.318 1088.88 444.697 1089.86 445.455C1090.85 446.212 1091.56 447.212 1091.97 448.455ZM1103.92 444.545V446.818H1094.88V444.545H1103.92ZM1097.51 440.364H1100.19V457C1100.19 457.758 1100.3 458.326 1100.52 458.705C1100.75 459.076 1101.04 459.326 1101.39 459.455C1101.74 459.576 1102.12 459.636 1102.51 459.636C1102.81 459.636 1103.05 459.621 1103.24 459.591C1103.43 459.553 1103.58 459.523 1103.69 459.5L1104.24 461.909C1104.06 461.977 1103.8 462.045 1103.48 462.114C1103.15 462.189 1102.74 462.227 1102.24 462.227C1101.48 462.227 1100.74 462.064 1100.01 461.739C1099.29 461.413 1098.69 460.917 1098.22 460.25C1097.75 459.583 1097.51 458.742 1097.51 457.727V440.364ZM1115.09 462.364C1113.4 462.364 1111.95 461.992 1110.73 461.25C1109.52 460.5 1108.59 459.455 1107.93 458.114C1107.27 456.765 1106.95 455.197 1106.95 453.409C1106.95 451.621 1107.27 450.045 1107.93 448.682C1108.59 447.311 1109.5 446.242 1110.68 445.477C1111.86 444.705 1113.24 444.318 1114.81 444.318C1115.72 444.318 1116.62 444.47 1117.51 444.773C1118.39 445.076 1119.2 445.568 1119.93 446.25C1120.65 446.924 1121.23 447.818 1121.66 448.932C1122.1 450.045 1122.31 451.417 1122.31 453.045V454.182H1108.86V451.864H1119.59C1119.59 450.879 1119.39 450 1118.99 449.227C1118.61 448.455 1118.05 447.845 1117.34 447.398C1116.62 446.951 1115.78 446.727 1114.81 446.727C1113.74 446.727 1112.82 446.992 1112.04 447.523C1111.27 448.045 1110.67 448.727 1110.26 449.568C1109.84 450.409 1109.63 451.311 1109.63 452.273V453.818C1109.63 455.136 1109.86 456.254 1110.31 457.17C1110.77 458.08 1111.41 458.773 1112.23 459.25C1113.05 459.72 1114 459.955 1115.09 459.955C1115.79 459.955 1116.43 459.856 1116.99 459.659C1117.57 459.455 1118.07 459.152 1118.48 458.75C1118.9 458.341 1119.22 457.833 1119.45 457.227L1122.04 457.955C1121.77 458.833 1121.31 459.606 1120.66 460.273C1120.02 460.932 1119.23 461.447 1118.28 461.818C1117.33 462.182 1116.27 462.364 1115.09 462.364ZM1126.39 462V444.545H1128.98V447.182H1129.16C1129.48 446.318 1130.06 445.617 1130.89 445.08C1131.73 444.542 1132.66 444.273 1133.71 444.273C1133.91 444.273 1134.15 444.277 1134.45 444.284C1134.74 444.292 1134.97 444.303 1135.12 444.318V447.045C1135.03 447.023 1134.82 446.989 1134.49 446.943C1134.18 446.89 1133.84 446.864 1133.48 446.864C1132.63 446.864 1131.88 447.042 1131.21 447.398C1130.55 447.746 1130.03 448.231 1129.64 448.852C1129.26 449.466 1129.07 450.167 1129.07 450.955V462H1126.39Z" fill="white"/>
<path id="Control ROM" d="M1225 943H1222.18C1222.01 942.189 1221.72 941.477 1221.31 940.864C1220.9 940.25 1220.4 939.735 1219.81 939.318C1219.22 938.894 1218.57 938.576 1217.86 938.364C1217.15 938.152 1216.41 938.045 1215.63 938.045C1214.23 938.045 1212.95 938.402 1211.81 939.114C1210.67 939.826 1209.76 940.875 1209.09 942.261C1208.42 943.648 1208.09 945.348 1208.09 947.364C1208.09 949.379 1208.42 951.08 1209.09 952.466C1209.76 953.852 1210.67 954.902 1211.81 955.614C1212.95 956.326 1214.23 956.682 1215.63 956.682C1216.41 956.682 1217.15 956.576 1217.86 956.364C1218.57 956.152 1219.22 955.837 1219.81 955.42C1220.4 954.996 1220.9 954.477 1221.31 953.864C1221.72 953.242 1222.01 952.53 1222.18 951.727H1225C1224.79 952.917 1224.4 953.981 1223.84 954.92C1223.28 955.86 1222.58 956.659 1221.75 957.318C1220.92 957.97 1219.98 958.466 1218.94 958.807C1217.91 959.148 1216.81 959.318 1215.63 959.318C1213.65 959.318 1211.88 958.833 1210.34 957.864C1208.79 956.894 1207.58 955.515 1206.69 953.727C1205.81 951.939 1205.36 949.818 1205.36 947.364C1205.36 944.909 1205.81 942.788 1206.69 941C1207.58 939.212 1208.79 937.833 1210.34 936.864C1211.88 935.894 1213.65 935.409 1215.63 935.409C1216.81 935.409 1217.91 935.58 1218.94 935.92C1219.98 936.261 1220.92 936.761 1221.75 937.42C1222.58 938.072 1223.28 938.867 1223.84 939.807C1224.4 940.739 1224.79 941.803 1225 943ZM1236.28 959.364C1234.7 959.364 1233.32 958.989 1232.13 958.239C1230.95 957.489 1230.03 956.439 1229.36 955.091C1228.7 953.742 1228.37 952.167 1228.37 950.364C1228.37 948.545 1228.7 946.958 1229.36 945.602C1230.03 944.246 1230.95 943.193 1232.13 942.443C1233.32 941.693 1234.7 941.318 1236.28 941.318C1237.86 941.318 1239.23 941.693 1240.42 942.443C1241.61 943.193 1242.53 944.246 1243.19 945.602C1243.86 946.958 1244.19 948.545 1244.19 950.364C1244.19 952.167 1243.86 953.742 1243.19 955.091C1242.53 956.439 1241.61 957.489 1240.42 958.239C1239.23 958.989 1237.86 959.364 1236.28 959.364ZM1236.28 956.955C1237.48 956.955 1238.46 956.648 1239.23 956.034C1240.01 955.42 1240.58 954.614 1240.95 953.614C1241.32 952.614 1241.51 951.53 1241.51 950.364C1241.51 949.197 1241.32 948.11 1240.95 947.102C1240.58 946.095 1240.01 945.28 1239.23 944.659C1238.46 944.038 1237.48 943.727 1236.28 943.727C1235.08 943.727 1234.1 944.038 1233.33 944.659C1232.55 945.28 1231.98 946.095 1231.61 947.102C1231.24 948.11 1231.05 949.197 1231.05 950.364C1231.05 951.53 1231.24 952.614 1231.61 953.614C1231.98 954.614 1232.55 955.42 1233.33 956.034C1234.1 956.648 1235.08 956.955 1236.28 956.955ZM1250.96 948.5V959H1248.28V941.545H1250.87V944.273H1251.1C1251.51 943.386 1252.13 942.674 1252.96 942.136C1253.8 941.591 1254.87 941.318 1256.19 941.318C1257.37 941.318 1258.41 941.561 1259.29 942.045C1260.18 942.523 1260.87 943.25 1261.36 944.227C1261.85 945.197 1262.1 946.424 1262.1 947.909V959H1259.42V948.091C1259.42 946.72 1259.06 945.652 1258.35 944.886C1257.64 944.114 1256.66 943.727 1255.42 943.727C1254.56 943.727 1253.8 943.913 1253.12 944.284C1252.46 944.655 1251.93 945.197 1251.54 945.909C1251.16 946.621 1250.96 947.485 1250.96 948.5ZM1274.59 941.545V943.818H1265.55V941.545H1274.59ZM1268.18 937.364H1270.87V954C1270.87 954.758 1270.97 955.326 1271.19 955.705C1271.42 956.076 1271.71 956.326 1272.06 956.455C1272.41 956.576 1272.79 956.636 1273.18 956.636C1273.48 956.636 1273.72 956.621 1273.91 956.591C1274.1 956.553 1274.25 956.523 1274.37 956.5L1274.91 958.909C1274.73 958.977 1274.47 959.045 1274.15 959.114C1273.82 959.189 1273.41 959.227 1272.91 959.227C1272.15 959.227 1271.41 959.064 1270.68 958.739C1269.96 958.413 1269.37 957.917 1268.89 957.25C1268.42 956.583 1268.18 955.742 1268.18 954.727V937.364ZM1278.63 959V941.545H1281.22V944.182H1281.4C1281.72 943.318 1282.29 942.617 1283.13 942.08C1283.96 941.542 1284.9 941.273 1285.94 941.273C1286.14 941.273 1286.39 941.277 1286.68 941.284C1286.98 941.292 1287.2 941.303 1287.35 941.318V944.045C1287.26 944.023 1287.05 943.989 1286.73 943.943C1286.41 943.89 1286.07 943.864 1285.72 943.864C1284.87 943.864 1284.11 944.042 1283.44 944.398C1282.79 944.746 1282.26 945.231 1281.88 945.852C1281.5 946.466 1281.31 947.167 1281.31 947.955V959H1278.63ZM1297.09 959.364C1295.52 959.364 1294.13 958.989 1292.94 958.239C1291.76 957.489 1290.84 956.439 1290.17 955.091C1289.51 953.742 1289.18 952.167 1289.18 950.364C1289.18 948.545 1289.51 946.958 1290.17 945.602C1290.84 944.246 1291.76 943.193 1292.94 942.443C1294.13 941.693 1295.52 941.318 1297.09 941.318C1298.67 941.318 1300.05 941.693 1301.23 942.443C1302.42 943.193 1303.34 944.246 1304 945.602C1304.67 946.958 1305 948.545 1305 950.364C1305 952.167 1304.67 953.742 1304 955.091C1303.34 956.439 1302.42 957.489 1301.23 958.239C1300.05 958.989 1298.67 959.364 1297.09 959.364ZM1297.09 956.955C1298.29 956.955 1299.27 956.648 1300.05 956.034C1300.82 955.42 1301.39 954.614 1301.76 953.614C1302.13 952.614 1302.32 951.53 1302.32 950.364C1302.32 949.197 1302.13 948.11 1301.76 947.102C1301.39 946.095 1300.82 945.28 1300.05 944.659C1299.27 944.038 1298.29 943.727 1297.09 943.727C1295.9 943.727 1294.91 944.038 1294.14 944.659C1293.37 945.28 1292.79 946.095 1292.42 947.102C1292.05 948.11 1291.87 949.197 1291.87 950.364C1291.87 951.53 1292.05 952.614 1292.42 953.614C1292.79 954.614 1293.37 955.42 1294.14 956.034C1294.91 956.648 1295.9 956.955 1297.09 956.955ZM1311.78 935.727V959H1309.1V935.727H1311.78ZM1326.05 959V935.727H1333.92C1335.73 935.727 1337.23 936.038 1338.39 936.659C1339.56 937.273 1340.42 938.117 1340.98 939.193C1341.54 940.269 1341.83 941.492 1341.83 942.864C1341.83 944.235 1341.54 945.451 1340.98 946.511C1340.42 947.572 1339.56 948.405 1338.4 949.011C1337.25 949.61 1335.76 949.909 1333.96 949.909H1327.6V947.364H1333.87C1335.11 947.364 1336.11 947.182 1336.87 946.818C1337.64 946.455 1338.19 945.939 1338.53 945.273C1338.88 944.598 1339.05 943.795 1339.05 942.864C1339.05 941.932 1338.88 941.117 1338.53 940.42C1338.18 939.723 1337.62 939.186 1336.86 938.807C1336.09 938.42 1335.08 938.227 1333.83 938.227H1328.87V959H1326.05ZM1337.01 948.545L1342.73 959H1339.46L1333.83 948.545H1337.01ZM1366.16 947.364C1366.16 949.818 1365.71 951.939 1364.83 953.727C1363.94 955.515 1362.73 956.894 1361.18 957.864C1359.63 958.833 1357.87 959.318 1355.88 959.318C1353.9 959.318 1352.13 958.833 1350.59 957.864C1349.04 956.894 1347.83 955.515 1346.94 953.727C1346.06 951.939 1345.61 949.818 1345.61 947.364C1345.61 944.909 1346.06 942.788 1346.94 941C1347.83 939.212 1349.04 937.833 1350.59 936.864C1352.13 935.894 1353.9 935.409 1355.88 935.409C1357.87 935.409 1359.63 935.894 1361.18 936.864C1362.73 937.833 1363.94 939.212 1364.83 941C1365.71 942.788 1366.16 944.909 1366.16 947.364ZM1363.43 947.364C1363.43 945.348 1363.09 943.648 1362.42 942.261C1361.75 940.875 1360.85 939.826 1359.7 939.114C1358.57 938.402 1357.29 938.045 1355.88 938.045C1354.48 938.045 1353.2 938.402 1352.06 939.114C1350.92 939.826 1350.01 940.875 1349.34 942.261C1348.67 943.648 1348.34 945.348 1348.34 947.364C1348.34 949.379 1348.67 951.08 1349.34 952.466C1350.01 953.852 1350.92 954.902 1352.06 955.614C1353.2 956.326 1354.48 956.682 1355.88 956.682C1357.29 956.682 1358.57 956.326 1359.7 955.614C1360.85 954.902 1361.75 953.852 1362.42 952.466C1363.09 951.08 1363.43 949.379 1363.43 947.364ZM1370.9 935.727H1374.26L1382.17 955.045H1382.44L1390.35 935.727H1393.71V959H1391.08V941.318H1390.85L1383.58 959H1381.03L1373.76 941.318H1373.53V959H1370.9V935.727Z" fill="white"/>
<path id="Flags" d="M1278.51 692V668.727H1292.46V671.227H1281.32V679.091H1291.41V681.591H1281.32V692H1278.51ZM1299.61 668.727V692H1296.92V668.727H1299.61ZM1309.65 692.409C1308.55 692.409 1307.54 692.201 1306.64 691.784C1305.74 691.36 1305.02 690.75 1304.49 689.955C1303.96 689.152 1303.7 688.182 1303.7 687.045C1303.7 686.045 1303.9 685.235 1304.29 684.614C1304.68 683.985 1305.21 683.492 1305.87 683.136C1306.53 682.78 1307.26 682.515 1308.05 682.341C1308.85 682.159 1309.66 682.015 1310.47 681.909C1311.53 681.773 1312.39 681.67 1313.05 681.602C1313.72 681.527 1314.2 681.402 1314.51 681.227C1314.82 681.053 1314.97 680.75 1314.97 680.318V680.227C1314.97 679.106 1314.66 678.235 1314.05 677.614C1313.45 676.992 1312.52 676.682 1311.29 676.682C1310.01 676.682 1309.01 676.962 1308.28 677.523C1307.55 678.083 1307.04 678.682 1306.74 679.318L1304.2 678.409C1304.65 677.348 1305.26 676.523 1306.02 675.932C1306.78 675.333 1307.62 674.917 1308.52 674.682C1309.43 674.439 1310.32 674.318 1311.2 674.318C1311.76 674.318 1312.4 674.386 1313.13 674.523C1313.87 674.652 1314.57 674.92 1315.26 675.33C1315.95 675.739 1316.52 676.356 1316.97 677.182C1317.43 678.008 1317.65 679.114 1317.65 680.5V692H1314.97V689.636H1314.84C1314.65 690.015 1314.35 690.42 1313.93 690.852C1313.5 691.284 1312.94 691.652 1312.23 691.955C1311.53 692.258 1310.67 692.409 1309.65 692.409ZM1310.06 690C1311.12 690 1312.02 689.792 1312.74 689.375C1313.48 688.958 1314.03 688.42 1314.4 687.761C1314.78 687.102 1314.97 686.409 1314.97 685.682V683.227C1314.86 683.364 1314.61 683.489 1314.22 683.602C1313.84 683.708 1313.4 683.803 1312.9 683.886C1312.41 683.962 1311.93 684.03 1311.46 684.091C1311 684.144 1310.62 684.189 1310.34 684.227C1309.64 684.318 1308.99 684.466 1308.38 684.67C1307.78 684.867 1307.3 685.167 1306.93 685.568C1306.56 685.962 1306.38 686.5 1306.38 687.182C1306.38 688.114 1306.73 688.818 1307.41 689.295C1308.11 689.765 1308.99 690 1310.06 690ZM1329.59 698.909C1328.3 698.909 1327.18 698.742 1326.25 698.409C1325.32 698.083 1324.54 697.652 1323.92 697.114C1323.31 696.583 1322.82 696.015 1322.46 695.409L1324.59 693.909C1324.84 694.227 1325.14 694.591 1325.51 695C1325.89 695.417 1326.39 695.777 1327.04 696.08C1327.69 696.39 1328.54 696.545 1329.59 696.545C1331 696.545 1332.17 696.205 1333.08 695.523C1334 694.841 1334.46 693.773 1334.46 692.318V688.773H1334.23C1334.03 689.091 1333.75 689.485 1333.39 689.955C1333.03 690.417 1332.52 690.83 1331.84 691.193C1331.18 691.549 1330.28 691.727 1329.14 691.727C1327.73 691.727 1326.46 691.394 1325.34 690.727C1324.23 690.061 1323.35 689.091 1322.7 687.818C1322.05 686.545 1321.73 685 1321.73 683.182C1321.73 681.394 1322.04 679.837 1322.67 678.511C1323.3 677.178 1324.18 676.148 1325.3 675.42C1326.42 674.686 1327.71 674.318 1329.18 674.318C1330.32 674.318 1331.22 674.508 1331.89 674.886C1332.56 675.258 1333.08 675.682 1333.43 676.159C1333.8 676.629 1334.08 677.015 1334.28 677.318H1334.55V674.545H1337.14V692.5C1337.14 694 1336.8 695.22 1336.12 696.159C1335.44 697.106 1334.53 697.799 1333.39 698.239C1332.25 698.686 1330.99 698.909 1329.59 698.909ZM1329.5 689.318C1330.58 689.318 1331.49 689.072 1332.23 688.58C1332.97 688.087 1333.54 687.379 1333.92 686.455C1334.31 685.53 1334.5 684.424 1334.5 683.136C1334.5 681.879 1334.31 680.769 1333.93 679.807C1333.56 678.845 1333 678.091 1332.25 677.545C1331.51 677 1330.59 676.727 1329.5 676.727C1328.37 676.727 1327.42 677.015 1326.66 677.591C1325.91 678.167 1325.35 678.939 1324.97 679.909C1324.6 680.879 1324.41 681.955 1324.41 683.136C1324.41 684.348 1324.6 685.42 1324.98 686.352C1325.37 687.277 1325.93 688.004 1326.68 688.534C1327.44 689.057 1328.38 689.318 1329.5 689.318ZM1354.41 678.455L1352 679.136C1351.85 678.735 1351.63 678.345 1351.33 677.966C1351.04 677.58 1350.65 677.261 1350.15 677.011C1349.65 676.761 1349.01 676.636 1348.23 676.636C1347.16 676.636 1346.27 676.883 1345.56 677.375C1344.86 677.86 1344.5 678.477 1344.5 679.227C1344.5 679.894 1344.75 680.42 1345.23 680.807C1345.71 681.193 1346.47 681.515 1347.5 681.773L1350.09 682.409C1351.65 682.788 1352.82 683.367 1353.58 684.148C1354.35 684.92 1354.73 685.917 1354.73 687.136C1354.73 688.136 1354.44 689.03 1353.87 689.818C1353.3 690.606 1352.5 691.227 1351.48 691.682C1350.46 692.136 1349.27 692.364 1347.91 692.364C1346.13 692.364 1344.66 691.977 1343.49 691.205C1342.32 690.432 1341.59 689.303 1341.28 687.818L1343.82 687.182C1344.06 688.121 1344.52 688.826 1345.2 689.295C1345.88 689.765 1346.77 690 1347.87 690C1349.12 690 1350.11 689.735 1350.84 689.205C1351.59 688.667 1351.96 688.023 1351.96 687.273C1351.96 686.667 1351.75 686.159 1351.32 685.75C1350.9 685.333 1350.25 685.023 1349.37 684.818L1346.46 684.136C1344.86 683.758 1343.68 683.17 1342.93 682.375C1342.19 681.572 1341.82 680.568 1341.82 679.364C1341.82 678.379 1342.1 677.508 1342.65 676.75C1343.21 675.992 1343.97 675.398 1344.93 674.966C1345.9 674.534 1347 674.318 1348.23 674.318C1349.96 674.318 1351.31 674.697 1352.3 675.455C1353.29 676.212 1354 677.212 1354.41 678.455Z" fill="white"/>
<path id="ALU_2" d="M1372.6 465H1369.65L1378.19 441.727H1381.1L1389.65 465H1386.69L1379.74 445.409H1379.56L1372.6 465ZM1373.69 455.909H1385.6V458.409H1373.69V455.909ZM1393.27 465V441.727H1396.09V462.5H1406.91V465H1393.27ZM1426.54 441.727H1429.36V457.136C1429.36 458.727 1428.99 460.148 1428.24 461.398C1427.49 462.64 1426.45 463.621 1425.09 464.341C1423.73 465.053 1422.14 465.409 1420.32 465.409C1418.49 465.409 1416.9 465.053 1415.54 464.341C1414.19 463.621 1413.13 462.64 1412.38 461.398C1411.64 460.148 1411.27 458.727 1411.27 457.136V441.727H1414.09V456.909C1414.09 458.045 1414.34 459.057 1414.84 459.943C1415.34 460.822 1416.05 461.515 1416.98 462.023C1417.91 462.523 1419.02 462.773 1420.32 462.773C1421.61 462.773 1422.73 462.523 1423.66 462.023C1424.59 461.515 1425.3 460.822 1425.79 459.943C1426.29 459.057 1426.54 458.045 1426.54 456.909V441.727Z" fill="white"/>
<path id="Data&#226;&#128;&#168;Memory" d="M1661.16 441H1653.97V417.727H1661.47C1663.73 417.727 1665.66 418.193 1667.27 419.125C1668.88 420.049 1670.11 421.379 1670.96 423.114C1671.82 424.841 1672.25 426.909 1672.25 429.318C1672.25 431.742 1671.82 433.83 1670.95 435.58C1670.09 437.322 1668.83 438.663 1667.18 439.602C1665.53 440.534 1663.52 441 1661.16 441ZM1656.79 438.5H1660.97C1662.9 438.5 1664.49 438.129 1665.76 437.386C1667.02 436.644 1667.97 435.587 1668.59 434.216C1669.21 432.845 1669.52 431.212 1669.52 429.318C1669.52 427.439 1669.21 425.822 1668.6 424.466C1667.99 423.102 1667.07 422.057 1665.85 421.33C1664.63 420.595 1663.11 420.227 1661.29 420.227H1656.79V438.5ZM1681.75 441.409C1680.64 441.409 1679.64 441.201 1678.74 440.784C1677.83 440.36 1677.12 439.75 1676.59 438.955C1676.06 438.152 1675.79 437.182 1675.79 436.045C1675.79 435.045 1675.99 434.235 1676.38 433.614C1676.78 432.985 1677.3 432.492 1677.96 432.136C1678.62 431.78 1679.35 431.515 1680.14 431.341C1680.95 431.159 1681.75 431.015 1682.57 430.909C1683.63 430.773 1684.49 430.67 1685.14 430.602C1685.81 430.527 1686.3 430.402 1686.6 430.227C1686.91 430.053 1687.07 429.75 1687.07 429.318V429.227C1687.07 428.106 1686.76 427.235 1686.14 426.614C1685.54 425.992 1684.62 425.682 1683.38 425.682C1682.1 425.682 1681.1 425.962 1680.37 426.523C1679.64 427.083 1679.13 427.682 1678.84 428.318L1676.29 427.409C1676.75 426.348 1677.35 425.523 1678.11 424.932C1678.88 424.333 1679.71 423.917 1680.61 423.682C1681.52 423.439 1682.41 423.318 1683.29 423.318C1683.85 423.318 1684.5 423.386 1685.22 423.523C1685.96 423.652 1686.67 423.92 1687.35 424.33C1688.04 424.739 1688.61 425.356 1689.07 426.182C1689.52 427.008 1689.75 428.114 1689.75 429.5V441H1687.07V438.636H1686.93C1686.75 439.015 1686.44 439.42 1686.02 439.852C1685.6 440.284 1685.03 440.652 1684.33 440.955C1683.62 441.258 1682.76 441.409 1681.75 441.409ZM1682.16 439C1683.22 439 1684.11 438.792 1684.84 438.375C1685.57 437.958 1686.13 437.42 1686.5 436.761C1686.88 436.102 1687.07 435.409 1687.07 434.682V432.227C1686.95 432.364 1686.7 432.489 1686.32 432.602C1685.94 432.708 1685.5 432.803 1685 432.886C1684.5 432.962 1684.02 433.03 1683.55 433.091C1683.09 433.144 1682.72 433.189 1682.43 433.227C1681.73 433.318 1681.08 433.466 1680.47 433.67C1679.88 433.867 1679.39 434.167 1679.02 434.568C1678.66 434.962 1678.47 435.5 1678.47 436.182C1678.47 437.114 1678.82 437.818 1679.51 438.295C1680.21 438.765 1681.09 439 1682.16 439ZM1702.23 423.545V425.818H1693.19V423.545H1702.23ZM1695.82 419.364H1698.51V436C1698.51 436.758 1698.62 437.326 1698.84 437.705C1699.06 438.076 1699.35 438.326 1699.7 438.455C1700.05 438.576 1700.43 438.636 1700.82 438.636C1701.12 438.636 1701.36 438.621 1701.55 438.591C1701.74 438.553 1701.89 438.523 1702.01 438.5L1702.55 440.909C1702.37 440.977 1702.12 441.045 1701.79 441.114C1701.46 441.189 1701.05 441.227 1700.55 441.227C1699.79 441.227 1699.05 441.064 1698.32 440.739C1697.6 440.413 1697.01 439.917 1696.53 439.25C1696.06 438.583 1695.82 437.742 1695.82 436.727V419.364ZM1711.4 441.409C1710.3 441.409 1709.29 441.201 1708.39 440.784C1707.49 440.36 1706.77 439.75 1706.24 438.955C1705.71 438.152 1705.45 437.182 1705.45 436.045C1705.45 435.045 1705.65 434.235 1706.04 433.614C1706.43 432.985 1706.96 432.492 1707.62 432.136C1708.28 431.78 1709.01 431.515 1709.8 431.341C1710.6 431.159 1711.41 431.015 1712.22 430.909C1713.28 430.773 1714.14 430.67 1714.8 430.602C1715.47 430.527 1715.95 430.402 1716.26 430.227C1716.57 430.053 1716.72 429.75 1716.72 429.318V429.227C1716.72 428.106 1716.41 427.235 1715.8 426.614C1715.2 425.992 1714.27 425.682 1713.04 425.682C1711.76 425.682 1710.76 425.962 1710.03 426.523C1709.3 427.083 1708.79 427.682 1708.49 428.318L1705.95 427.409C1706.4 426.348 1707.01 425.523 1707.77 424.932C1708.53 424.333 1709.37 423.917 1710.27 423.682C1711.18 423.439 1712.07 423.318 1712.95 423.318C1713.51 423.318 1714.15 423.386 1714.88 423.523C1715.62 423.652 1716.32 423.92 1717.01 424.33C1717.7 424.739 1718.27 425.356 1718.72 426.182C1719.18 427.008 1719.4 428.114 1719.4 429.5V441H1716.72V438.636H1716.59C1716.4 439.015 1716.1 439.42 1715.68 439.852C1715.25 440.284 1714.69 440.652 1713.98 440.955C1713.28 441.258 1712.42 441.409 1711.4 441.409ZM1711.81 439C1712.87 439 1713.77 438.792 1714.49 438.375C1715.23 437.958 1715.78 437.42 1716.15 436.761C1716.53 436.102 1716.72 435.409 1716.72 434.682V432.227C1716.61 432.364 1716.36 432.489 1715.97 432.602C1715.59 432.708 1715.15 432.803 1714.65 432.886C1714.16 432.962 1713.68 433.03 1713.21 433.091C1712.75 433.144 1712.37 433.189 1712.09 433.227C1711.39 433.318 1710.74 433.466 1710.13 433.67C1709.53 433.867 1709.05 434.167 1708.68 434.568C1708.31 434.962 1708.13 435.5 1708.13 436.182C1708.13 437.114 1708.48 437.818 1709.16 438.295C1709.86 438.765 1710.74 439 1711.81 439ZM1627.19 456.727H1630.56L1638.47 476.045H1638.74L1646.65 456.727H1650.01V480H1647.38V462.318H1647.15L1639.88 480H1637.33L1630.06 462.318H1629.83V480H1627.19V456.727ZM1662.62 480.364C1660.93 480.364 1659.48 479.992 1658.26 479.25C1657.05 478.5 1656.12 477.455 1655.46 476.114C1654.81 474.765 1654.48 473.197 1654.48 471.409C1654.48 469.621 1654.81 468.045 1655.46 466.682C1656.12 465.311 1657.03 464.242 1658.21 463.477C1659.39 462.705 1660.77 462.318 1662.34 462.318C1663.25 462.318 1664.15 462.47 1665.04 462.773C1665.92 463.076 1666.73 463.568 1667.46 464.25C1668.18 464.924 1668.76 465.818 1669.2 466.932C1669.63 468.045 1669.84 469.417 1669.84 471.045V472.182H1656.39V469.864H1667.12C1667.12 468.879 1666.92 468 1666.53 467.227C1666.14 466.455 1665.59 465.845 1664.87 465.398C1664.15 464.951 1663.31 464.727 1662.34 464.727C1661.28 464.727 1660.35 464.992 1659.57 465.523C1658.8 466.045 1658.2 466.727 1657.79 467.568C1657.37 468.409 1657.16 469.311 1657.16 470.273V471.818C1657.16 473.136 1657.39 474.254 1657.84 475.17C1658.31 476.08 1658.95 476.773 1659.76 477.25C1660.58 477.72 1661.53 477.955 1662.62 477.955C1663.32 477.955 1663.96 477.856 1664.53 477.659C1665.1 477.455 1665.6 477.152 1666.01 476.75C1666.43 476.341 1666.75 475.833 1666.98 475.227L1669.57 475.955C1669.3 476.833 1668.84 477.606 1668.2 478.273C1667.55 478.932 1666.76 479.447 1665.81 479.818C1664.86 480.182 1663.8 480.364 1662.62 480.364ZM1673.92 480V462.545H1676.51V465.273H1676.74C1677.11 464.341 1677.69 463.617 1678.5 463.102C1679.31 462.58 1680.29 462.318 1681.42 462.318C1682.57 462.318 1683.53 462.58 1684.3 463.102C1685.07 463.617 1685.67 464.341 1686.11 465.273H1686.29C1686.73 464.371 1687.4 463.655 1688.3 463.125C1689.19 462.587 1690.26 462.318 1691.51 462.318C1693.07 462.318 1694.35 462.807 1695.34 463.784C1696.34 464.754 1696.83 466.265 1696.83 468.318V480H1694.15V468.318C1694.15 467.03 1693.8 466.11 1693.09 465.557C1692.39 465.004 1691.56 464.727 1690.61 464.727C1689.38 464.727 1688.43 465.098 1687.75 465.841C1687.08 466.576 1686.74 467.508 1686.74 468.636V480H1684.01V468.045C1684.01 467.053 1683.69 466.254 1683.05 465.648C1682.4 465.034 1681.57 464.727 1680.56 464.727C1679.86 464.727 1679.21 464.913 1678.61 465.284C1678.01 465.655 1677.52 466.17 1677.15 466.83C1676.79 467.481 1676.61 468.235 1676.61 469.091V480H1673.92ZM1708.83 480.364C1707.25 480.364 1705.87 479.989 1704.68 479.239C1703.5 478.489 1702.57 477.439 1701.91 476.091C1701.25 474.742 1700.92 473.167 1700.92 471.364C1700.92 469.545 1701.25 467.958 1701.91 466.602C1702.57 465.246 1703.5 464.193 1704.68 463.443C1705.87 462.693 1707.25 462.318 1708.83 462.318C1710.4 462.318 1711.78 462.693 1712.96 463.443C1714.15 464.193 1715.08 465.246 1715.74 466.602C1716.4 467.958 1716.74 469.545 1716.74 471.364C1716.74 473.167 1716.4 474.742 1715.74 476.091C1715.08 477.439 1714.15 478.489 1712.96 479.239C1711.78 479.989 1710.4 480.364 1708.83 480.364ZM1708.83 477.955C1710.02 477.955 1711.01 477.648 1711.78 477.034C1712.55 476.42 1713.13 475.614 1713.5 474.614C1713.87 473.614 1714.05 472.53 1714.05 471.364C1714.05 470.197 1713.87 469.11 1713.5 468.102C1713.13 467.095 1712.55 466.28 1711.78 465.659C1711.01 465.038 1710.02 464.727 1708.83 464.727C1707.63 464.727 1706.64 465.038 1705.87 465.659C1705.1 466.28 1704.53 467.095 1704.16 468.102C1703.79 469.11 1703.6 470.197 1703.6 471.364C1703.6 472.53 1703.79 473.614 1704.16 474.614C1704.53 475.614 1705.1 476.42 1705.87 477.034C1706.64 477.648 1707.63 477.955 1708.83 477.955ZM1720.83 480V462.545H1723.42V465.182H1723.6C1723.92 464.318 1724.5 463.617 1725.33 463.08C1726.16 462.542 1727.1 462.273 1728.15 462.273C1728.34 462.273 1728.59 462.277 1728.89 462.284C1729.18 462.292 1729.41 462.303 1729.56 462.318V465.045C1729.47 465.023 1729.26 464.989 1728.93 464.943C1728.61 464.89 1728.28 464.864 1727.92 464.864C1727.07 464.864 1726.31 465.042 1725.65 465.398C1724.99 465.746 1724.47 466.231 1724.08 466.852C1723.7 467.466 1723.51 468.167 1723.51 468.955V480H1720.83ZM1734.99 486.545C1734.54 486.545 1734.13 486.508 1733.78 486.432C1733.42 486.364 1733.18 486.295 1733.04 486.227L1733.72 483.864C1734.37 484.03 1734.95 484.091 1735.45 484.045C1735.95 484 1736.39 483.777 1736.78 483.375C1737.17 482.981 1737.53 482.341 1737.86 481.455L1738.36 480.091L1731.9 462.545H1734.81L1739.63 476.455H1739.81L1744.63 462.545H1747.54L1740.13 482.545C1739.8 483.447 1739.38 484.193 1738.89 484.784C1738.4 485.383 1737.83 485.826 1737.18 486.114C1736.53 486.402 1735.8 486.545 1734.99 486.545Z" fill="white"/>
<circle id="CLK" cx="411" cy="989" r="58" fill="#2AE6C0" fill-opacity="0.8"/>
<g id="CLKPath">
<line id="Line 42" x1="411.5" y1="614" x2="411.5" y2="931" stroke="white"/>
<line id="Line 43" x1="1179.5" y1="685" x2="1179.5" y2="802" stroke="white"/>
<line id="Line 44" x1="1179" y1="802.5" x2="411" y2="802.5" stroke="white"/>
<line id="Line 46" x1="1745.5" y1="802" x2="1745.5" y2="685" stroke="white"/>
<line id="Line 62" x1="1746" y1="802.5" x2="1179" y2="802.5" stroke="white"/>
</g>
<path id="CLK_2" d="M400.545 984H397.727C397.561 983.189 397.269 982.477 396.852 981.864C396.443 981.25 395.943 980.735 395.352 980.318C394.769 979.894 394.121 979.576 393.409 979.364C392.697 979.152 391.955 979.045 391.182 979.045C389.773 979.045 388.496 979.402 387.352 980.114C386.216 980.826 385.311 981.875 384.636 983.261C383.97 984.648 383.636 986.348 383.636 988.364C383.636 990.379 383.97 992.08 384.636 993.466C385.311 994.852 386.216 995.902 387.352 996.614C388.496 997.326 389.773 997.682 391.182 997.682C391.955 997.682 392.697 997.576 393.409 997.364C394.121 997.152 394.769 996.837 395.352 996.42C395.943 995.996 396.443 995.477 396.852 994.864C397.269 994.242 397.561 993.53 397.727 992.727H400.545C400.333 993.917 399.947 994.981 399.386 995.92C398.826 996.86 398.129 997.659 397.295 998.318C396.462 998.97 395.527 999.466 394.489 999.807C393.458 1000.15 392.356 1000.32 391.182 1000.32C389.197 1000.32 387.432 999.833 385.886 998.864C384.341 997.894 383.125 996.515 382.239 994.727C381.352 992.939 380.909 990.818 380.909 988.364C380.909 985.909 381.352 983.788 382.239 982C383.125 980.212 384.341 978.833 385.886 977.864C387.432 976.894 389.197 976.409 391.182 976.409C392.356 976.409 393.458 976.58 394.489 976.92C395.527 977.261 396.462 977.761 397.295 978.42C398.129 979.072 398.826 979.867 399.386 980.807C399.947 981.739 400.333 982.803 400.545 984ZM405.099 1000V976.727H407.918V997.5H418.736V1000H405.099ZM423.099 1000V976.727H425.918V988.273H426.19L436.645 976.727H440.327L430.554 987.227L440.327 1000H436.918L428.827 989.182L425.918 992.455V1000H423.099Z" fill="black"/>
<line id="ControlToRegPath" x1="1040.5" y1="685" x2="1040.5" y2="876" stroke="white"/>
<g id="ControlToInstPath">
<line id="Line 48" x1="670.5" y1="685" x2="670.5" y2="948" stroke="white"/>
<line id="Line 49" x1="670" y1="947.5" x2="847" y2="947.5" stroke="white"/>
</g>
<line id="ControlToALUPath" x1="1391.5" y1="575" x2="1391.5" y2="876" stroke="white"/>
<line id="ControlToDataWriteAddrPath" x1="1629.5" y1="685" x2="1629.5" y2="876" stroke="white"/>
<line id="ControlToDataEnPath" x1="1687.5" y1="685" x2="1687.5" y2="876" stroke="white"/>
<rect id="Flag" opacity="0.5" x="1259" y="661" width="114" height="44" fill="#434343" fill-opacity="0.8"/>
<line id="ALUtoFlagPath" x1="1341.5" y1="609" x2="1341.5" y2="661" stroke="white"/>
<line id="FlagToControlROMpath" x1="1311.5" y1="705" x2="1311.5" y2="876" stroke="white"/>
<g id="ControlToPCMUXPath">
<line id="Line 55" x1="275.5" y1="586" x2="275.5" y2="908" stroke="white"/>
<line id="Line 56" x1="275" y1="907.5" x2="847" y2="907.5" stroke="white"/>
</g>
<line id="ControlToRegWritePath" x1="922.5" y1="572" x2="922.5" y2="601" stroke="white"/>
<line id="ControlToRegDataOrControlToRegWritePath" x1="922.5" y1="692" x2="922.5" y2="876" stroke="white"/>
</g>
<defs>
<filter id="filter0_d_3_95" x="1306" y="278.572" width="133.5" height="357.334" filterUnits="userSpaceOnUse" color-interpolation-filters="sRGB">
<feFlood flood-opacity="0" result="BackgroundImageFix"/>
<feColorMatrix in="SourceAlpha" type="matrix" values="0 0 0 0 0 0 0 0 0 0 0 0 0 0 0 0 0 0 127 0" result="hardAlpha"/>
<feOffset dy="4"/>
<feGaussianBlur stdDeviation="2"/>
<feComposite in2="hardAlpha" operator="out"/>
<feColorMatrix type="matrix" values="0 0 0 0 0 0 0 0 0 0 0 0 0 0 0 0 0 0 0.25 0"/>
<feBlend mode="normal" in2="BackgroundImageFix" result="effect1_dropShadow_3_95"/>
<feBlend mode="normal" in="SourceGraphic" in2="effect1_dropShadow_3_95" result="shape"/>
</filter>
</defs>
</svg>
